<svg width="10" height="6" viewBox="0 0 10 6" fill="none" xmlns="http://www.w3.org/2000/svg">
<path d="M0.379261 0.636364H1.51705L2.71875 3.56818H2.76989L3.97159 0.636364H5.10938V5H4.21449V2.1598H4.17827L3.04901 4.97869H2.43963L1.31037 2.14915H1.27415V5H0.379261V0.636364Z" fill="#D19C97"/>
<path d="M8.23668 1.89134C8.21964 1.71946 8.14648 1.58594 8.01722 1.49077C7.88796 1.3956 7.71254 1.34801 7.49094 1.34801C7.34038 1.34801 7.21325 1.36932 7.10955 1.41193C7.00586 1.45312 6.92631 1.51065 6.87092 1.58452C6.81694 1.65838 6.78995 1.74219 6.78995 1.83594C6.78711 1.91406 6.80344 1.98224 6.83896 2.04048C6.87589 2.09872 6.92631 2.14915 6.99023 2.19176C7.05415 2.23295 7.12802 2.26918 7.21183 2.30043C7.29563 2.33026 7.38512 2.35582 7.48029 2.37713L7.87234 2.47088C8.06268 2.51349 8.23739 2.57031 8.39648 2.64134C8.55558 2.71236 8.69336 2.79972 8.80984 2.90341C8.92631 3.0071 9.01651 3.12926 9.08043 3.26989C9.14577 3.41051 9.17915 3.57173 9.18058 3.75355C9.17915 4.0206 9.11097 4.25213 8.97603 4.44815C8.84251 4.64276 8.64933 4.79403 8.39648 4.90199C8.14506 5.00852 7.8418 5.06179 7.48668 5.06179C7.13441 5.06179 6.82759 5.00781 6.56623 4.89986C6.30629 4.7919 6.10316 4.6321 5.95685 4.42045C5.81197 4.20739 5.73597 3.94389 5.72887 3.62997H6.62163C6.63157 3.77628 6.67347 3.89844 6.74734 3.99645C6.82262 4.09304 6.92276 4.16619 7.04776 4.21591C7.17418 4.2642 7.31694 4.28835 7.47603 4.28835C7.63228 4.28835 7.76793 4.26562 7.88299 4.22017C7.99947 4.17472 8.08967 4.11151 8.15359 4.03054C8.21751 3.94957 8.24947 3.85653 8.24947 3.75142C8.24947 3.65341 8.22035 3.57102 8.16211 3.50426C8.10529 3.4375 8.02148 3.38068 7.91069 3.33381C7.80131 3.28693 7.66708 3.24432 7.50799 3.20597L7.03285 3.08665C6.66495 2.99716 6.37447 2.85724 6.1614 2.6669C5.94833 2.47656 5.84251 2.22017 5.84393 1.89773C5.84251 1.63352 5.91282 1.4027 6.05487 1.20526C6.19833 1.00781 6.39506 0.853693 6.64506 0.742898C6.89506 0.632102 7.17915 0.576704 7.49734 0.576704C7.8212 0.576704 8.10387 0.632102 8.34535 0.742898C8.58825 0.853693 8.77717 1.00781 8.91211 1.20526C9.04705 1.4027 9.11665 1.63139 9.12092 1.89134H8.23668Z" fill="#1C1C1C"/>
</svg>
